<?xml version="1.0" encoding="utf-8"?>
<!-- Generator: Adobe Illustrator 25.0.1, SVG Export Plug-In . SVG Version: 6.00 Build 0)  -->
<svg version="1.1" id="Layer_1" xmlns="http://www.w3.org/2000/svg" xmlns:xlink="http://www.w3.org/1999/xlink" x="0px" y="0px"
	 viewBox="0 0 440.6 87.4" style="enable-background:new 0 0 440.6 87.4;" xml:space="preserve">
<style type="text/css">
	.st0{fill:#996600;}
	.st1{fill:#003366;}
</style>
<g>
	<g>
		<g>
			<g>
				<path class="st0" d="M42.8,85.7L33,69.3c0,0-0.3-0.4-0.3-1l0-0.4v-0.8V37.8h-3.7v30.5v0.9c0.3,0.3,6.5,10.9,6.5,10.9H20.1
					c0,0,6.2-10.6,6.5-10.9v-0.9V37.8h-3.7v29.2v0.8l0,0.4c0,0.6-0.3,1-0.3,1l-9.9,16.4H42.8z"/>
			</g>
			<g>
				<path class="st0" d="M39.8,16.5c0,0,1.9-7.7-4.8-12.7c0,0-2.6-2.4-7.7-2.4c-4.5,0-7.1,2.4-7.1,2.4c-6.1,4.2-4.5,12.7-4.5,12.7
					H39.8z"/>
				<path class="st0" d="M16.4,18.6h22.6c0.2-0.4,0.3-0.9,0.5-1.3H16C16.1,17.8,16.2,18.2,16.4,18.6z"/>
				<path class="st0" d="M38.7,19.4H16.8c0.2,0.5,0.5,0.9,0.8,1.3H38C38.2,20.3,38.5,19.9,38.7,19.4z"/>
				<path class="st0" d="M19,22.6h17.4c0.3-0.3,0.6-0.7,0.9-1.1H18.1C18.4,21.9,18.7,22.3,19,22.6z"/>
				<path class="st0" d="M20.9,24.2h13.7c0.4-0.2,0.7-0.5,1-0.8H19.9C20.2,23.7,20.5,23.9,20.9,24.2z"/>
				<path class="st0" d="M22.8,25.3c1.5,0.7,3.2,1.1,4.9,1.1c1.8,0,3.4-0.4,4.9-1.1H22.8z"/>
			</g>
			<path class="st1" d="M51.2,26.9H32.7c0,0-1.7,0-3.1,0.9c-1.1,0.7-1.8,2.4-1.9,2.5h0c0-0.1-0.8-1.8-1.9-2.5
				c-1.4-0.9-3.1-0.9-3.1-0.9H4.3l-3.7,5.9h17c0,0,0.5,0,0.8,0.1c0.5,0.1,1.4,0.3,2.3,1c1.3,0.9,1.6,1.4,1.9,1.7
				c0.2,0.2,0.6,0.7,0.6,0.7h4.2h0.5l0,0h1.4h3.2c0,0,0.4-0.5,0.6-0.7c0.3-0.3,0.7-0.8,1.9-1.7c0.9-0.7,1.8-0.9,2.3-1
				c0.3-0.1,0.8-0.1,0.8-0.1h17L51.2,26.9z"/>
			<g>
				<g>
					<path class="st1" d="M2.4,34.6v27.8c0,0,0,0.3,0,0.4c0,0.3,0,0.6,0,0.8c0.3,3,1.2,5.2,3,8.1c2.7,4.5,7.7,7.7,7.7,7.7l2.3-3.7
						c0,0-3.2-1.7-5.7-5.5c-0.5-0.8-1-1.5-1.4-2.2c-0.3-0.7-0.6-1.2-0.8-1.8c-0.1-0.4-0.3-0.8-0.3-1.2c-0.1-0.5-0.2-0.9-0.2-1.4
						c0-0.2,0-0.9,0-0.9v-0.1V34.6H2.4z"/>
					<path class="st1" d="M9.5,34.6v28.1c0,0,0,0.1,0,0.2c0,0.1,0,0.3,0,0.5c0,0.1,0,0.2,0,0.3c0.1,0.4,0.2,0.8,0.4,1.4
						c0.3,0.9,0.9,2.1,1.7,3.4c2.1,3.4,5.1,4.9,5.1,4.9l2.3-3.6c0,0-0.8-0.4-1.7-1.3c-0.6-0.6-1.4-1.4-2-2.3c-0.6-1-1-1.9-1.2-2.6
						C14,62.9,14,62.4,14,62.1c0-0.3,0-0.4,0-0.4V34.6H9.5z"/>
				</g>
				<g>
					<path class="st1" d="M53.1,34.6v27.8c0,0,0,0.3,0,0.4c0,0.3,0,0.6,0,0.8c-0.3,3-1.2,5.2-3,8.1c-2.7,4.5-7.7,7.7-7.7,7.7
						l-2.3-3.7c0,0,3.2-1.7,5.7-5.5c0.5-0.8,1-1.5,1.4-2.2c0.3-0.7,0.6-1.2,0.8-1.8c0.1-0.4,0.3-0.8,0.3-1.2
						c0.1-0.5,0.2-0.9,0.2-1.4c0-0.2,0-0.9,0-0.9v-0.1V34.6H53.1z"/>
					<path class="st1" d="M46,34.6v28.1c0,0,0,0.1,0,0.2c0,0.1,0,0.3,0,0.5c0,0.1,0,0.2,0,0.3c-0.1,0.4-0.2,0.8-0.4,1.4
						c-0.3,0.9-0.9,2.1-1.7,3.4c-2.1,3.4-5.1,4.9-5.1,4.9l-2.3-3.6c0,0,0.8-0.4,1.7-1.3c0.6-0.6,1.4-1.4,2-2.3c0.6-1,1-1.9,1.2-2.6
						c0.2-0.6,0.2-1.1,0.2-1.4c0-0.3,0-0.4,0-0.4V34.6H46z"/>
				</g>
			</g>
		</g>
	</g>
	<g>
		<path class="st1" d="M75.1,85h-2.5V67.3h-4.7v-2.3h11.9v2.3h-4.7V85z"/>
		<path class="st1" d="M82,65.1h10.7v2.3h-8.2v5.6h8v2.3h-8v7.5h8.2V85H82V65.1z"/>
		<path class="st1" d="M110.6,68.9c-1.4-1.3-3.4-2-5.3-2c-4.5,0-7.9,3.7-7.9,8.1c0,4.4,3.4,8.1,7.8,8.1c2,0,3.8-0.7,5.3-2.1V84
			c-1.5,0.9-3.5,1.4-5.2,1.4c-5.7,0-10.4-4.5-10.4-10.3c0-5.9,4.7-10.5,10.6-10.5c1.7,0,3.5,0.4,5,1.3V68.9z"/>
		<path class="st1" d="M125.5,73.1v-8h2.5V85h-2.5v-9.6H116V85h-2.5V65.1h2.5v8H125.5z"/>
		<path class="st1" d="M131.6,64.1l14.9,15.7V65.1h2.5v20.7l-14.9-15.7V85h-2.5V64.1z"/>
		<path class="st1" d="M172.3,75c0,5.9-4.7,10.4-10.4,10.4c-5.8,0-10.4-4.5-10.4-10.4c0-5.7,4.7-10.4,10.4-10.4
			C167.6,64.6,172.3,69.3,172.3,75z M169.8,75c0-4.4-3.3-8.1-7.9-8.1c-4.7,0-7.9,3.7-7.9,8.1c0,4.5,3.6,8.1,7.9,8.1
			C166.2,83.1,169.8,79.6,169.8,75z"/>
		<path class="st1" d="M177.4,82.7h6V85H175V65.1h2.5V82.7z"/>
		<path class="st1" d="M204.8,75c0,5.9-4.7,10.4-10.4,10.4c-5.8,0-10.4-4.5-10.4-10.4c0-5.7,4.7-10.4,10.4-10.4
			C200.1,64.6,204.8,69.3,204.8,75z M202.4,75c0-4.4-3.3-8.1-7.9-8.1c-4.7,0-7.9,3.7-7.9,8.1c0,4.5,3.6,8.1,7.9,8.1
			C198.7,83.1,202.4,79.6,202.4,75z"/>
		<path class="st1" d="M225.6,74.9v0.8c0,5.5-3.9,9.7-9.4,9.7c-5.6,0-10.1-4.8-10.1-10.3c0-5.7,4.6-10.4,10.3-10.4
			c3.1,0,6.2,1.4,8.1,3.9l-1.7,1.7c-1.4-2-3.8-3.2-6.3-3.2c-4.5,0-7.9,3.6-7.9,8.1c0,4.2,3.4,8.1,7.7,8.1c3.1,0,6.4-2.7,6.5-5.9
			h-5.1v-2.3H225.6z"/>
		<path class="st1" d="M226.3,65.1h2.9l4.9,8.5l4.9-8.5h2.9l-6.5,11.2V85h-2.5v-8.7L226.3,65.1z"/>
	</g>
	<g>
		<path class="st1" d="M73.4,21.6h-2.5V4h-4.7V1.7h11.9V4h-4.7V21.6z"/>
		<path class="st1" d="M92.1,9.8v-8h2.5v19.9h-2.5v-9.6h-9.5v9.6h-2.5V1.7h2.5v8H92.1z"/>
		<path class="st1" d="M98.4,1.7h10.7V4h-8.2v5.6h8v2.3h-8v7.5h8.2v2.3H98.4V1.7z"/>
		<path class="st1" d="M132.1,9.8v-8h2.5v19.9h-2.5v-9.6h-9.5v9.6h-2.5V1.7h2.5v8H132.1z"/>
		<path class="st1" d="M157.9,11.7c0,5.9-4.7,10.4-10.4,10.4c-5.8,0-10.4-4.5-10.4-10.4c0-5.7,4.7-10.4,10.4-10.4
			C153.1,1.3,157.9,6,157.9,11.7z M155.4,11.7c0-4.4-3.3-8.1-7.9-8.1c-4.7,0-7.9,3.7-7.9,8.1c0,4.5,3.6,8.1,7.9,8.1
			C151.7,19.7,155.4,16.2,155.4,11.7z"/>
		<path class="st1" d="M160.3,0.8l14.9,15.7V1.7h2.5v20.7L162.8,6.8v14.8h-2.5V0.8z"/>
		<path class="st1" d="M199.7,11.6v0.8c0,5.5-3.9,9.7-9.4,9.7c-5.6,0-10.1-4.8-10.1-10.3c0-5.7,4.6-10.4,10.3-10.4
			c3.1,0,6.2,1.4,8.1,3.9l-1.7,1.7c-1.4-2-3.8-3.2-6.3-3.2c-4.5,0-7.9,3.6-7.9,8.1c0,4.2,3.4,8.1,7.7,8.1c3.1,0,6.4-2.7,6.5-5.9
			h-5.1v-2.3H199.7z"/>
		<path class="st1" d="M221.2,1.7h3.2l-8.9,8.9l9.1,11h-3.4l-7.5-9.3l-1,1v8.3h-2.5V1.7h2.5v8.6L221.2,1.7z"/>
		<path class="st1" d="M245.8,11.7c0,5.9-4.7,10.4-10.4,10.4c-5.8,0-10.4-4.5-10.4-10.4c0-5.7,4.7-10.4,10.4-10.4
			C241.1,1.3,245.8,6,245.8,11.7z M243.3,11.7c0-4.4-3.3-8.1-7.9-8.1c-4.7,0-7.9,3.7-7.9,8.1c0,4.5,3.6,8.1,7.9,8.1
			C239.7,19.7,243.3,16.2,243.3,11.7z"/>
		<path class="st1" d="M248.2,0.8l14.9,15.7V1.7h2.5v20.7L250.7,6.8v14.8h-2.5V0.8z"/>
		<path class="st1" d="M287.6,11.6v0.8c0,5.5-3.9,9.7-9.4,9.7c-5.6,0-10.1-4.8-10.1-10.3c0-5.7,4.6-10.4,10.3-10.4
			c3.1,0,6.2,1.4,8.1,3.9l-1.7,1.7c-1.4-2-3.8-3.2-6.3-3.2c-4.5,0-7.9,3.6-7.9,8.1c0,4.2,3.4,8.1,7.7,8.1c3.1,0,6.4-2.7,6.5-5.9
			h-5.1v-2.3H287.6z"/>
	</g>
	<g>
		<path class="st1" d="M70.2,33.4v11.7c0,3.2,1,6.3,4.8,6.3c3.8,0,4.8-3,4.8-6.3V33.4h2.5V46c0,4.4-2.7,7.7-7.3,7.7
			c-4.6,0-7.3-3.4-7.3-7.7V33.4H70.2z"/>
		<path class="st1" d="M86.1,32.5L101,48.1V33.4h2.5v20.7L88.6,38.5v14.8h-2.5V32.5z"/>
		<path class="st1" d="M110.8,53.3h-2.5V33.4h2.5V53.3z"/>
		<path class="st1" d="M121.4,48.1l5.9-14.7h2.7l-8.6,21l-8.7-21h2.7L121.4,48.1z"/>
		<path class="st1" d="M132,33.4h10.7v2.3h-8.2v5.6h8v2.3h-8V51h8.2v2.3H132V33.4z"/>
		<path class="st1" d="M158.4,53.3h-3l-5.9-8.4h-1v8.4H146V33.4h3c1.8,0,3.7,0,5.3,0.9c1.7,1,2.6,2.9,2.6,4.7c0,2.9-1.9,5.2-4.8,5.6
			L158.4,53.3z M148.5,42.8h0.8c2.5,0,5.3-0.5,5.3-3.6c0-3.1-3-3.6-5.4-3.6h-0.7V42.8z"/>
		<path class="st1" d="M169.8,37.2c-0.7-1.2-1.7-1.9-3.2-1.9c-1.6,0-3.3,1.1-3.3,2.8c0,1.6,1.5,2.4,2.8,2.9l1.4,0.6
			c2.8,1.1,4.9,2.7,4.9,6c0,3.6-2.8,6.2-6.4,6.2c-3.2,0-5.7-2.4-6.2-5.6l2.5-0.5c0,2.2,1.7,3.8,3.9,3.8c2.1,0,3.7-1.8,3.7-3.9
			c0-2.1-1.7-3.1-3.4-3.8l-1.4-0.6c-2.3-1-4.3-2.3-4.3-5c0-3.2,2.9-5.1,5.9-5.1c2.2,0,4,1.1,5.1,3L169.8,37.2z"/>
		<path class="st1" d="M178.2,53.3h-2.5V33.4h2.5V53.3z"/>
		<path class="st1" d="M188.1,53.3h-2.5V35.7h-4.7v-2.3h11.9v2.3h-4.7V53.3z"/>
		<path class="st1" d="M193.7,33.4h2.9l4.9,8.5l4.9-8.5h2.9l-6.5,11.2v8.7h-2.5v-8.7L193.7,33.4z"/>
		<path class="st1" d="M239,43.4c0,5.9-4.7,10.4-10.4,10.4c-5.8,0-10.4-4.5-10.4-10.4c0-5.7,4.7-10.4,10.4-10.4
			C234.2,33,239,37.7,239,43.4z M236.5,43.4c0-4.4-3.3-8.1-7.9-8.1c-4.7,0-7.9,3.7-7.9,8.1c0,4.5,3.6,8.1,7.9,8.1
			C232.8,51.4,236.5,47.9,236.5,43.4z"/>
		<path class="st1" d="M244.5,35.7v5.6h6.9v2.3h-6.9v9.8H242V33.4h9.6v2.3H244.5z"/>
		<path class="st1" d="M272.7,37.2c-0.7-1.2-1.7-1.9-3.2-1.9c-1.6,0-3.3,1.1-3.3,2.8c0,1.6,1.5,2.4,2.8,2.9l1.4,0.6
			c2.8,1.1,4.9,2.7,4.9,6c0,3.6-2.8,6.2-6.4,6.2c-3.2,0-5.7-2.4-6.2-5.6l2.5-0.5c0,2.2,1.7,3.8,3.9,3.8c2.1,0,3.7-1.8,3.7-3.9
			c0-2.1-1.7-3.1-3.4-3.8l-1.4-0.6c-2.3-1-4.3-2.3-4.3-5c0-3.2,2.9-5.1,5.9-5.1c2.2,0,4,1.1,5.1,3L272.7,37.2z"/>
		<path class="st1" d="M293.3,37.2c-1.4-1.3-3.4-2-5.3-2c-4.5,0-7.9,3.7-7.9,8.1c0,4.4,3.4,8.1,7.8,8.1c2,0,3.8-0.7,5.3-2.1v2.9
			c-1.5,0.9-3.5,1.4-5.2,1.4c-5.7,0-10.4-4.5-10.4-10.3c0-5.9,4.7-10.5,10.6-10.5c1.7,0,3.5,0.4,5,1.3V37.2z"/>
		<path class="st1" d="M299.9,53.3h-2.5V33.4h2.5V53.3z"/>
		<path class="st1" d="M304.8,33.4h10.7v2.3h-8.2v5.6h8v2.3h-8V51h8.2v2.3h-10.7V33.4z"/>
		<path class="st1" d="M319.5,32.5l14.9,15.7V33.4h2.5v20.7L322,38.5v14.8h-2.5V32.5z"/>
		<path class="st1" d="M355.4,37.2c-1.4-1.3-3.4-2-5.3-2c-4.5,0-7.9,3.7-7.9,8.1c0,4.4,3.4,8.1,7.8,8.1c2,0,3.8-0.7,5.3-2.1v2.9
			c-1.5,0.9-3.5,1.4-5.2,1.4c-5.7,0-10.4-4.5-10.4-10.3c0-5.9,4.7-10.5,10.6-10.5c1.7,0,3.5,0.4,5,1.3V37.2z"/>
		<path class="st1" d="M359,33.4h10.7v2.3h-8.2v5.6h8v2.3h-8V51h8.2v2.3H359V33.4z"/>
	</g>
	<path class="st1" d="M386.1,48.4l-2.3,5h-2.7l9.5-20.7l9.5,20.7h-2.7l-2.3-5H386.1z M390.7,38.1l-3.5,8.1h7.1L390.7,38.1z"/>
	<path class="st1" d="M402.5,32.5l14.9,15.7V33.5h2.5v20.7l-14.9-15.7v14.8h-2.5V32.5z"/>
	<path class="st1" d="M423.7,33.5h4.1c6.1,0,11.2,3.2,11.2,9.8c0,6.8-5,10.1-11.2,10.1h-4V33.5z M426.1,51.1h0.9
		c5.1,0,9.5-1.9,9.5-7.7c0-5.8-4.4-7.7-9.5-7.7h-0.9V51.1z"/>
	<g>
		<g>
			<g>
				<path class="st1" d="M278.6,75v0.8c0,5.5-3.9,9.7-9.4,9.7c-5.6,0-10.1-4.8-10.1-10.3c0-5.7,4.6-10.4,10.3-10.4
					c3.1,0,6.2,1.4,8.1,3.9l-1.7,1.7c-1.4-2-3.8-3.3-6.3-3.3c-4.5,0-8,3.6-8,8.1c0,4.2,3.4,8.1,7.7,8.1c3.1,0,6.4-2.7,6.5-5.9h-5.2
					V75H278.6z"/>
				<path class="st1" d="M283.5,65.1v11.8c0,3.3,1,6.3,4.8,6.3c3.8,0,4.8-3,4.8-6.3V65.1h2.5v12.6c0,4.4-2.7,7.7-7.3,7.7
					c-4.6,0-7.3-3.4-7.3-7.7V65.1H283.5z"/>
				<path class="st1" d="M302.1,80l-2.3,5h-2.7l9.5-20.8l9.5,20.8h-2.7l-2.3-5H302.1z M306.7,69.7l-3.5,8.1h7.1L306.7,69.7z"/>
				<path class="st1" d="M317.9,64.1l15,15.7V65.1h2.5v20.8l-15-15.7V85h-2.5V64.1z"/>
				<path class="st1" d="M357.3,75v0.8c0,5.5-3.9,9.7-9.4,9.7c-5.6,0-10.1-4.8-10.1-10.3c0-5.7,4.6-10.4,10.3-10.4
					c3.1,0,6.2,1.4,8.1,3.9l-1.7,1.7c-1.4-2-3.8-3.3-6.3-3.3c-4.5,0-8,3.6-8,8.1c0,4.2,3.4,8.1,7.7,8.1c3.1,0,6.4-2.7,6.5-5.9h-5.2
					V75H357.3z"/>
				<path class="st1" d="M372.5,82.7V85h-14.2l10.1-17.7h-8.7v-2.3h12.7l-10.1,17.7H372.5z"/>
				<path class="st1" d="M386.6,73.1v-8h2.5V85h-2.5v-9.6h-9.5V85h-2.5V65.1h2.5v8H386.6z"/>
				<path class="st1" d="M412.4,75c0,5.9-4.7,10.4-10.4,10.4c-5.8,0-10.4-4.5-10.4-10.4c0-5.7,4.7-10.4,10.4-10.4
					C407.7,64.6,412.4,69.3,412.4,75z M409.9,75c0-4.4-3.3-8.1-8-8.1c-4.7,0-8,3.7-8,8.1c0,4.5,3.7,8.1,8,8.1
					C406.3,83.1,409.9,79.6,409.9,75z"/>
				<path class="st1" d="M417.2,65.1v11.8c0,3.3,1,6.3,4.8,6.3c3.8,0,4.8-3,4.8-6.3V65.1h2.5v12.6c0,4.4-2.7,7.7-7.3,7.7
					c-4.6,0-7.3-3.4-7.3-7.7V65.1H417.2z"/>
			</g>
		</g>
		<path class="st1" d="M255.9,63.2c-1.1,2-1.8,3.7-2.3,5c-0.7,2.2-1.1,4.4-1.1,6.8c0,3.8,1.1,7.7,3.4,11.7h-1.8
			c-1.2-1.7-2.2-3.5-3.1-5.6c-0.8-2.1-1.2-4.2-1.2-6.2c0-2.8,0.7-5.5,2.1-8.3c0.8-1.4,1.5-2.6,2.1-3.5H255.9z"/>
		<path class="st1" d="M439.9,75c0,2.8-0.7,5.5-2.1,8.3c-0.7,1.3-1.4,2.5-2.1,3.5h-1.8c1.1-2,1.8-3.7,2.3-5c0.7-2.2,1.1-4.4,1.1-6.8
			c0-3.8-1.1-7.7-3.4-11.7h1.8c1.2,1.6,2.2,3.5,3,5.6C439.5,71,439.9,73.1,439.9,75z"/>
	</g>
</g>
</svg>
